<svg width="413" height="109" viewBox="0 0 413 109" fill="none" xmlns="http://www.w3.org/2000/svg">
<path d="M86.1249 101V88.1788H90.285C93.0107 88.1788 94.6425 89.434 94.6425 91.532C94.6425 92.7514 94.0149 93.7018 92.921 94.2576C94.4631 94.7777 95.3239 95.8715 95.3239 97.4495C95.3239 99.6372 93.5486 101 90.6975 101H86.1249ZM90.6616 99.2606C92.5265 99.2606 93.5128 98.5971 93.5128 97.324C93.5128 95.9074 92.5624 95.1901 90.6616 95.1901H87.9898V99.2606H90.6616ZM90.2492 93.5224C91.9348 93.5224 92.8134 92.8769 92.8134 91.6755C92.8134 90.492 91.9706 89.9002 90.2492 89.9002H87.9898V93.5224H90.2492ZM96.7088 101V92.0879H98.2868L98.3586 93.8273H98.3765C98.8068 92.6079 99.7931 91.8906 101.048 91.8906C101.264 91.8906 101.461 91.9086 101.676 91.9624L101.568 93.6121C101.299 93.5404 101.048 93.5045 100.779 93.5045C99.6138 93.5045 98.8068 94.3832 98.5379 95.9432C98.4841 96.2839 98.4661 96.7502 98.4661 97.5392V101H96.7088ZM102.987 101V92.0879H104.744V101H102.987ZM102.933 90.2947V88.2326H104.798V90.2947H102.933ZM106.621 101V92.0879H108.199L108.253 93.6838C108.809 92.59 109.938 91.9086 111.23 91.9086C113.148 91.9086 114.296 93.2355 114.296 95.3873V101H112.539V95.6205C112.539 94.2576 111.911 93.5224 110.745 93.5224C109.526 93.5224 108.701 94.3473 108.45 95.728C108.396 96.0688 108.378 96.4812 108.378 97.4854V101H106.621ZM119.674 101.126C117.397 101.126 115.747 99.171 115.747 96.4991C115.747 93.8452 117.415 91.9086 119.674 91.9086C120.912 91.9086 121.97 92.5003 122.651 93.5045L122.759 92.0879H124.355V99.96C124.355 102.972 122.741 104.819 120.087 104.819C118.437 104.819 116.931 104.192 115.963 103.098L116.913 101.843C117.81 102.757 118.778 103.188 119.925 103.188C121.629 103.188 122.579 102.04 122.579 99.9779V99.6372C121.898 100.57 120.876 101.126 119.674 101.126ZM120.051 99.5117C121.521 99.5117 122.579 98.2564 122.579 96.4991C122.579 94.7777 121.521 93.5224 120.051 93.5224C118.563 93.5224 117.505 94.7777 117.505 96.4991C117.505 98.2564 118.563 99.5117 120.051 99.5117ZM126.217 101V92.0879H127.974V101H126.217ZM126.163 90.2947V88.2326H128.028V90.2947H126.163ZM129.851 101V92.0879H131.429L131.483 93.6838C132.039 92.59 133.169 91.9086 134.46 91.9086C136.378 91.9086 137.526 93.2355 137.526 95.3873V101H135.769V95.6205C135.769 94.2576 135.141 93.5224 133.975 93.5224C132.756 93.5224 131.931 94.3473 131.68 95.728C131.626 96.0688 131.608 96.4812 131.608 97.4854V101H129.851ZM142.905 101.126C140.627 101.126 138.977 99.171 138.977 96.4991C138.977 93.8452 140.645 91.9086 142.905 91.9086C144.142 91.9086 145.2 92.5003 145.881 93.5045L145.989 92.0879H147.585V99.96C147.585 102.972 145.971 104.819 143.317 104.819C141.667 104.819 140.161 104.192 139.193 103.098L140.143 101.843C141.04 102.757 142.008 103.188 143.156 103.188C144.859 103.188 145.809 102.04 145.809 99.9779V99.6372C145.128 100.57 144.106 101.126 142.905 101.126ZM143.281 99.5117C144.751 99.5117 145.809 98.2564 145.809 96.4991C145.809 94.7777 144.751 93.5224 143.281 93.5224C141.793 93.5224 140.735 94.7777 140.735 96.4991C140.735 98.2564 141.793 99.5117 143.281 99.5117ZM162.263 101L161.062 97.7364H155.449L154.248 101H152.311L157.171 88.1788H159.34L164.218 101H162.263ZM156.077 96.0688H160.434L158.264 90.1692L156.077 96.0688ZM168.481 101.126C166.204 101.126 164.554 99.171 164.554 96.4991C164.554 93.8452 166.222 91.9086 168.481 91.9086C169.718 91.9086 170.776 92.5003 171.458 93.5045L171.565 92.0879H173.161V99.96C173.161 102.972 171.547 104.819 168.894 104.819C167.244 104.819 165.738 104.192 164.769 103.098L165.72 101.843C166.616 102.757 167.585 103.188 168.732 103.188C170.436 103.188 171.386 102.04 171.386 99.9779V99.6372C170.705 100.57 169.683 101.126 168.481 101.126ZM168.858 99.5117C170.328 99.5117 171.386 98.2564 171.386 96.4991C171.386 94.7777 170.328 93.5224 168.858 93.5224C167.369 93.5224 166.311 94.7777 166.311 96.4991C166.311 98.2564 167.369 99.5117 168.858 99.5117ZM175.024 101V92.0879H176.602L176.674 93.8273H176.692C177.122 92.6079 178.108 91.8906 179.363 91.8906C179.579 91.8906 179.776 91.9086 179.991 91.9624L179.883 93.6121C179.614 93.5404 179.363 93.5045 179.094 93.5045C177.929 93.5045 177.122 94.3832 176.853 95.9432C176.799 96.2839 176.781 96.7502 176.781 97.5392V101H175.024ZM184.689 101.179C182.196 101.179 180.385 99.2427 180.385 96.5529C180.385 93.8452 182.125 91.9086 184.599 91.9086C187.038 91.9086 188.813 93.8093 188.813 96.4274C188.813 96.6964 188.795 96.9474 188.759 97.1626H182.178C182.394 98.6509 183.362 99.6013 184.689 99.6013C185.729 99.6013 186.482 99.171 187.163 98.1847L188.544 98.9916C187.737 100.408 186.392 101.179 184.689 101.179ZM186.966 95.8536C186.823 94.419 185.89 93.4866 184.599 93.4866C183.308 93.4866 182.394 94.4011 182.178 95.8536H186.966ZM194.364 101.179C191.872 101.179 190.061 99.2427 190.061 96.5529C190.061 93.8452 191.8 91.9086 194.275 91.9086C196.713 91.9086 198.489 93.8093 198.489 96.4274C198.489 96.6964 198.471 96.9474 198.435 97.1626H191.854C192.069 98.6509 193.037 99.6013 194.364 99.6013C195.404 99.6013 196.157 99.171 196.839 98.1847L198.22 98.9916C197.413 100.408 196.068 101.179 194.364 101.179ZM196.642 95.8536C196.498 94.419 195.566 93.4866 194.275 93.4866C192.984 93.4866 192.069 94.4011 191.854 95.8536H196.642ZM199.935 101V92.0879H201.495L201.549 93.4148H201.585C202.069 92.4824 203.055 91.9086 204.239 91.9086C205.422 91.9086 206.283 92.5183 206.731 93.5942C207.287 92.5362 208.327 91.9086 209.582 91.9086C211.411 91.9086 212.487 93.2535 212.487 95.5129V101H210.73V95.5129C210.73 94.2397 210.156 93.5224 209.134 93.5224C208.04 93.5224 207.341 94.2935 207.144 95.6563C207.108 96.0329 207.09 96.4812 207.09 97.2881V101H205.333V95.5129C205.333 94.2397 204.759 93.5224 203.755 93.5224C202.625 93.5224 201.943 94.2756 201.764 95.6563C201.71 96.0329 201.692 96.4812 201.692 97.2881V101H199.935ZM218.251 101.179C215.758 101.179 213.947 99.2427 213.947 96.5529C213.947 93.8452 215.686 91.9086 218.161 91.9086C220.6 91.9086 222.375 93.8093 222.375 96.4274C222.375 96.6964 222.357 96.9474 222.321 97.1626H215.74C215.955 98.6509 216.924 99.6013 218.251 99.6013C219.291 99.6013 220.044 99.171 220.725 98.1847L222.106 98.9916C221.299 100.408 219.954 101.179 218.251 101.179ZM220.528 95.8536C220.385 94.419 219.452 93.4866 218.161 93.4866C216.87 93.4866 215.955 94.4011 215.74 95.8536H220.528ZM223.821 101V92.0879H225.399L225.453 93.6838C226.009 92.59 227.139 91.9086 228.43 91.9086C230.349 91.9086 231.496 93.2355 231.496 95.3873V101H229.739V95.6205C229.739 94.2576 229.111 93.5224 227.946 93.5224C226.726 93.5224 225.902 94.3473 225.651 95.728C225.597 96.0688 225.579 96.4812 225.579 97.4854V101H223.821ZM236.847 101.179C234.767 101.179 233.763 100.068 233.763 97.7005V93.7018H232.293V92.0879H233.763V89.3264H235.52V92.0879H238.156V93.7018H235.52V97.7185C235.52 98.9558 236.023 99.5655 237.045 99.5655C237.403 99.5655 237.798 99.4937 238.192 99.3503L238.425 100.928C237.941 101.108 237.385 101.179 236.847 101.179ZM242.899 101.179C241.303 101.179 239.851 100.588 238.99 99.673L239.869 98.4537C240.658 99.2427 241.769 99.673 242.845 99.673C243.939 99.673 244.656 99.171 244.656 98.4716C244.656 97.6468 243.598 97.4316 242.648 97.2343C241.231 96.9653 239.384 96.4633 239.384 94.5625C239.384 92.9845 240.676 91.9086 242.54 91.9086C243.975 91.9086 245.159 92.3927 246.145 93.1817L245.266 94.419C244.387 93.7556 243.455 93.4328 242.54 93.4328C241.608 93.4328 241.052 93.8452 241.052 94.4728C241.052 95.3515 242.2 95.5667 242.881 95.6922C244.567 96.015 246.324 96.5529 246.324 98.4178C246.324 100.085 244.925 101.179 242.899 101.179ZM255.717 101.179C253.637 101.179 252.633 100.068 252.633 97.7005V93.7018H251.162V92.0879H252.633V89.3264H254.39V92.0879H257.026V93.7018H254.39V97.7185C254.39 98.9558 254.892 99.5655 255.914 99.5655C256.273 99.5655 256.668 99.4937 257.062 99.3503L257.295 100.928C256.811 101.108 256.255 101.179 255.717 101.179ZM262.102 101.179C259.591 101.179 257.798 99.2427 257.798 96.5529C257.798 93.8452 259.591 91.9086 262.102 91.9086C264.594 91.9086 266.405 93.8452 266.405 96.5529C266.405 99.2427 264.594 101.179 262.102 101.179ZM262.102 99.5655C263.59 99.5655 264.63 98.3282 264.63 96.5529C264.63 94.7597 263.59 93.5224 262.102 93.5224C260.595 93.5224 259.555 94.7597 259.555 96.5529C259.555 98.3282 260.613 99.5655 262.102 99.5655ZM271.781 101V88.1788H273.646V99.2427H280.084V101H271.781ZM281.437 101V92.0879H283.195V101H281.437ZM281.383 90.2947V88.2326H283.248V90.2947H281.383ZM286.003 101V93.7018H284.532V92.0879H286.003V91.0478C286.003 88.6988 287.007 87.5691 289.087 87.5691C289.607 87.5691 290.163 87.6587 290.665 87.8201L290.432 89.3981C290.002 89.2547 289.625 89.1829 289.284 89.1829C288.262 89.1829 287.76 89.7926 287.76 91.012V92.0879H290.199V93.7018H287.76V101H286.003ZM294.911 101.179C292.419 101.179 290.608 99.2427 290.608 96.5529C290.608 93.8452 292.347 91.9086 294.822 91.9086C297.26 91.9086 299.036 93.8093 299.036 96.4274C299.036 96.6964 299.018 96.9474 298.982 97.1626H292.401C292.616 98.6509 293.584 99.6013 294.911 99.6013C295.951 99.6013 296.704 99.171 297.386 98.1847L298.767 98.9916C297.96 100.408 296.615 101.179 294.911 101.179ZM297.189 95.8536C297.045 94.419 296.113 93.4866 294.822 93.4866C293.531 93.4866 292.616 94.4011 292.401 95.8536H297.189Z" fill="black"/>
<g clip-path="url(#clip0_6_24)">
<path d="M396.636 46.3976V72.8792H386.912V48.1473C386.912 42.1242 384.321 38.7593 379.273 38.7593C374.226 38.7593 370.895 42.2924 369.953 48.2146C369.684 49.6278 369.616 51.815 369.616 56.4249V72.8455H359.892V30.7845H368.506C368.539 31.1546 368.741 34.9233 368.741 35.1588C368.741 35.4617 369.112 35.6299 369.347 35.428C372.914 32.6015 376.851 29.9769 382.335 29.9769C391.353 29.9769 396.636 36.0674 396.636 46.3976Z" fill="black"/>
<path d="M344.211 30.8182L343.909 35.63C343.875 35.9328 343.505 36.1011 343.303 35.8992C342.125 34.7888 337.785 30.0106 330.415 30.0106C319.85 30.0106 312.077 39.1295 312.077 51.5122C312.077 64.0632 319.782 73.2157 330.415 73.2157C337.515 73.2157 341.856 68.6058 342.664 67.5964C342.899 67.3272 343.337 67.4954 343.337 67.8319C343.236 69.1106 343.067 72.3072 341.991 75.0328C340.645 78.4649 337.616 81.6616 331.526 81.6616C326.512 81.6616 322.07 79.7436 317.864 75.6384L312.783 82.6037C317.393 87.8193 324.661 90.7468 332.569 90.7468C345.288 90.7468 352.927 82.0317 352.927 67.7983V30.8182H344.211ZM332.502 64.3997C326.209 64.3997 321.768 58.9486 321.768 51.5122C321.768 44.0758 326.209 38.7593 332.502 38.7593C338.794 38.7593 343.236 44.0422 343.236 51.5122C343.202 58.9823 338.76 64.3997 332.502 64.3997Z" fill="black"/>
<path d="M291.753 60.3956C291.753 68.3704 285.057 73.7205 275.231 73.7205C267.526 73.7205 260.661 70.7258 256.556 66.4524L259.753 58.8478C262.849 61.6406 267.829 65.6448 274.929 65.6448C279.875 65.6448 282.735 63.4577 282.735 60.6985C282.735 57.5018 278.798 56.6606 274.087 55.7521C267.391 54.3388 258.508 52.0507 258.508 42.9319C258.508 35.2936 264.699 30.0444 273.852 30.0444C280.884 30.0444 286.941 32.7363 291.114 36.2358L286.335 42.9319C282.298 39.7352 278.058 38.1537 273.852 38.1537C269.646 38.1537 267.559 39.9035 267.559 42.4271C267.559 45.9603 272.102 46.8688 275.433 47.5418C283.812 49.1569 291.753 51.6806 291.753 60.3956Z" fill="black"/>
<path d="M149.553 29.9769C137.675 29.9769 129.128 39.1967 129.128 51.8487C129.128 64.5006 137.675 73.7204 149.553 73.7204C161.431 73.7204 170.011 64.5006 170.011 51.8487C170.011 39.1967 161.465 29.9769 149.553 29.9769ZM149.553 64.9044C143.261 64.9044 138.819 59.5543 138.819 51.815C138.819 44.1094 143.16 38.7256 149.553 38.7256C155.913 38.7256 160.287 44.0758 160.287 51.815C160.287 59.5543 155.845 64.9044 149.553 64.9044Z" fill="black"/>
<path d="M173.444 51.8487C173.444 39.365 181.99 29.9769 193.397 29.9769C202.449 29.9769 209.078 34.5195 212.173 43.0663L203.559 46.3303C201.204 41.0474 198.108 38.7929 193.431 38.7929C187.576 38.7929 183.202 44.3113 183.202 51.8823C183.202 59.4197 187.542 64.9717 193.431 64.9717C198.142 64.9717 201.204 62.7172 203.559 57.4344L212.173 60.6983C209.078 69.2451 202.449 73.7877 193.397 73.7877C181.99 73.7204 173.444 64.3324 173.444 51.8487Z" fill="black"/>
<path d="M121.456 11.2682C121.288 11.2682 121.086 11.3019 120.918 11.4028L114.592 14.7677C114.457 14.835 114.39 14.9696 114.39 15.1042V35.1253C114.39 35.4618 113.986 35.5964 113.75 35.3945C112.808 34.5869 110.621 32.5343 107.593 31.1211C106.011 30.3808 103.689 29.977 101.57 29.977C90.9366 29.977 83.231 39.1968 83.231 51.8487C83.231 64.5007 90.9366 73.7205 101.57 73.7205C107.155 73.7205 111.361 70.793 113.919 68.1684C114.087 68.0002 114.188 67.8992 114.356 67.731C114.592 67.4954 114.996 67.63 114.996 67.9665L115.332 72.8793H124.114V11.5374C124.114 11.4028 124.013 11.2682 123.845 11.2682H121.456ZM103.656 64.9045C97.2962 64.9045 92.9219 59.5543 92.9219 51.8151C92.9219 44.0759 97.3972 38.7593 103.656 38.7593C109.948 38.7593 114.39 44.1095 114.39 51.8487C114.39 59.5543 110.049 64.9045 103.656 64.9045Z" fill="black"/>
<path d="M303.193 30.9528L297.103 34.1831C296.968 34.2504 296.901 34.385 296.901 34.5196V72.8792H306.626V31.0537C306.626 30.9191 306.525 30.7845 306.356 30.7845H303.732C303.53 30.8182 303.362 30.8518 303.193 30.9528Z" fill="black"/>
<path d="M301.747 23.9876C304.977 23.9876 307.601 21.363 307.601 18.1327C307.601 14.9024 304.977 12.2778 301.747 12.2778C298.516 12.2778 295.892 14.9024 295.892 18.1327C295.892 21.363 298.516 23.9876 301.747 23.9876Z" fill="black"/>
<path d="M253.057 30.7845V53.6321C253.057 70.9612 243.366 73.6868 234.718 73.6868C226.07 73.6868 216.379 70.9276 216.379 53.6321V30.7845H226.07V56.0548C226.07 58.5112 226.676 64.9045 234.718 64.9045C242.76 64.9045 243.366 58.5448 243.366 56.0548V30.7845H253.057Z" fill="black"/>
<path d="M402.188 68.5723V69.178H400.809V72.8457H400.136V69.178H398.756V68.5723H402.188ZM407 72.8457H406.327V69.4808L405.015 72.0045H404.645L403.332 69.5145V72.8457H402.659V68.5723H403.534L404.813 71.0287L406.092 68.5723H406.966L407 72.8457Z" fill="black"/>
<path d="M50.1542 56.425V73.0812C50.1542 73.9561 49.4475 74.6627 48.5727 74.6627H4.79555C3.92068 74.6627 3.21405 73.9561 3.21405 73.0812V29.3377C3.21405 28.4629 3.92068 27.7562 4.79555 27.7562H21.4181V54.8435C21.4181 55.7184 22.1247 56.425 22.9996 56.425H50.1542Z" fill="#4C00FF"/>
<path d="M68.3918 32.9381C68.3918 46.936 60.2151 56.3913 50.1541 56.425V38.793C50.1541 38.2883 49.9522 37.7835 49.5821 37.4471L40.4296 28.2946C40.0595 27.9244 39.5884 27.7225 39.0837 27.7225H21.4517V11.1C21.4517 10.2251 22.1583 9.51852 23.0332 9.51852H47.6978C59.4076 9.48487 68.3918 18.9065 68.3918 32.9381Z" fill="#FF5252"/>
<path d="M49.5821 37.4134C49.9522 37.7835 50.1541 38.2546 50.1541 38.7593V56.3913H23.0332C22.1583 56.3913 21.4517 55.6847 21.4517 54.8098V27.7225H39.0837C39.5884 27.7225 40.0931 27.9244 40.4296 28.2946L49.5821 37.4134Z" fill="black"/>
</g>
<defs>
<clipPath id="clip0_6_24">
<rect width="403.786" height="81.2283" fill="white" transform="translate(3.21405 9.48486)"/>
</clipPath>
</defs>
</svg>
