<svg width="387" height="51" viewBox="0 0 387 51" fill="none" xmlns="http://www.w3.org/2000/svg">
<rect y="0.660706" width="387" height="50" rx="5.87786" fill="#FCFAF9"/>
<path d="M221.464 35.7422V36.0725H220.712V38.0729H220.345V36.0725H219.593V35.7422H221.464ZM224.089 38.0729H223.721V36.2377L223.006 37.6141H222.804L222.089 36.256V38.0729H221.721V35.7422H222.198L222.896 37.0818L223.593 35.7422H224.07L224.089 38.0729Z" fill="black"/>
<path d="M218.504 23.632V38.0753H213.208V24.5923C213.208 21.3043 211.791 19.4731 209.046 19.4731C206.301 19.4731 204.476 21.3938 203.971 24.6357C203.833 25.4116 203.79 26.5971 203.79 29.1147V38.0725H198.492V15.1298H203.188C203.198 15.336 203.312 17.3869 203.32 17.509C203.328 17.6745 203.521 17.7586 203.651 17.6555C205.604 16.1092 207.747 14.6741 210.736 14.6741C215.622 14.6741 218.504 18.0109 218.504 23.632Z" fill="black"/>
<path d="M189.92 15.1402L189.746 17.7581C189.735 17.9264 189.534 18.0105 189.41 17.8992C188.772 17.2861 186.393 14.6818 182.376 14.6818C176.617 14.6818 172.37 19.6599 172.367 26.4176H172.362C172.362 33.2703 176.566 38.2538 182.373 38.2538C186.244 38.2538 188.62 35.7445 189.054 35.1829C189.179 35.031 189.42 35.1205 189.415 35.3158C189.366 36.0158 189.26 37.7656 188.683 39.2522C187.953 41.1322 186.299 42.8739 182.967 42.8739C180.228 42.8739 177.808 41.824 175.519 39.5859L172.779 43.3812C175.291 46.2188 179.265 47.8194 183.565 47.8194C190.508 47.8194 194.669 43.0638 194.669 35.2942V15.1402H189.92ZM183.524 33.463C180.098 33.463 177.673 30.4951 177.673 26.4257C177.673 22.3565 180.098 19.4754 183.524 19.4754C186.95 19.4754 189.371 22.3537 189.371 26.4257C189.371 30.4978 186.947 33.463 183.524 33.463Z" fill="black"/>
<path d="M161.306 31.271C161.306 35.617 157.647 38.5414 152.301 38.5414C148.097 38.5414 144.359 36.9001 142.111 34.5725L142.116 34.5671H142.108L143.852 30.4137C145.536 31.9356 148.257 34.114 152.125 34.114C154.824 34.114 156.376 32.9258 156.376 31.4147C156.376 29.6758 154.224 29.2173 151.666 28.7127C148.01 27.9396 143.168 26.7025 143.168 21.719C143.168 17.5574 146.551 14.6818 151.531 14.6818C155.366 14.6818 158.662 16.144 160.94 18.0648L158.331 21.7216C156.137 19.9855 153.809 19.1146 151.52 19.1146C149.231 19.1146 148.097 20.0777 148.097 21.4477C148.097 23.3684 150.568 23.8729 152.396 24.2365C156.967 25.148 161.306 26.5234 161.306 31.271Z" fill="black"/>
<path d="M83.7472 14.6741C77.2613 14.6741 72.6013 19.7065 72.6013 26.6052C72.6013 33.5041 77.2585 38.5365 83.7472 38.5365C90.2352 38.5365 94.8976 33.5122 94.8976 26.6052C94.8976 19.6983 90.2323 14.6741 83.7472 14.6741ZM83.7472 33.7374C80.3234 33.7374 77.8986 30.8129 77.8986 26.6052C77.8986 22.3976 80.2746 19.4731 83.7472 19.4731C87.219 19.4731 89.5951 22.4003 89.5951 26.6052C89.5951 30.8102 87.1724 33.7374 83.7472 33.7374Z" fill="black"/>
<path d="M96.7645 26.6052C96.7645 19.7932 101.425 14.6741 107.644 14.6741C112.581 14.6741 116.191 17.1455 117.878 21.8062L113.172 23.5886C111.895 20.7102 110.202 19.4759 107.641 19.4759C104.444 19.4759 102.068 22.4925 102.068 26.608C102.068 30.7234 104.441 33.7401 107.641 33.7401C110.202 33.7401 111.889 32.5031 113.172 29.6274L117.878 31.4097C116.191 36.0704 112.581 38.5418 107.644 38.5418C101.433 38.5418 96.7645 33.4227 96.7645 26.6107V26.5971V26.6026V26.6052Z" fill="black"/>
<path d="M68.4154 4.48352C68.3178 4.48352 68.2201 4.50794 68.1306 4.55406L64.6668 6.37982C64.599 6.41508 64.5583 6.48562 64.5583 6.56158V17.4917C64.5583 17.6735 64.3467 17.7576 64.211 17.6355C63.7038 17.1879 62.5076 16.0729 60.8449 15.3079C59.985 14.9118 58.7102 14.6785 57.5655 14.6785C51.7636 14.6785 47.5565 19.7108 47.5565 26.6097C47.5565 33.5085 51.7608 38.5327 57.5655 38.5327C60.6198 38.5327 62.901 36.9348 64.2951 35.5106C64.3901 35.4129 64.4416 35.3586 64.5257 35.2664C64.6478 35.1362 64.8675 35.2122 64.8784 35.3912L65.0601 38.0742H69.8584V4.62188C69.8584 4.54592 69.7961 4.48352 69.7201 4.48352H68.4154ZM58.7102 33.7391C55.2382 33.7391 52.8621 30.8146 52.8621 26.6069C52.8621 22.3993 55.2871 19.4748 58.7102 19.4748C62.1333 19.4748 64.5583 22.402 64.5583 26.6069C64.5583 30.8119 62.1848 33.7391 58.7102 33.7391Z" fill="black"/>
<path d="M167.55 15.2057L164.219 16.9637C164.152 16.9989 164.111 17.0695 164.111 17.1454V38.0724H169.411V15.2736C169.411 15.1976 169.349 15.1352 169.273 15.1352H167.835C167.735 15.1352 167.639 15.1596 167.55 15.2057Z" fill="black"/>
<path d="M166.762 11.4127C168.527 11.4127 169.957 9.98297 169.957 8.21693C169.957 6.45086 168.527 5.02118 166.762 5.02118C164.996 5.02118 163.567 6.45086 163.567 8.21693C163.567 9.98297 164.996 11.4127 166.762 11.4127Z" fill="black"/>
<path d="M140.187 15.1295V27.5923C140.187 37.0386 134.895 38.536 130.176 38.536C125.456 38.536 120.164 37.0386 120.164 27.5923V15.1295H125.456V29.3729C125.456 30.7212 125.795 33.7397 130.176 33.7397C134.556 33.7397 134.895 30.7212 134.895 29.3729V15.1295H140.187Z" fill="black"/>
<path d="M29.5135 29.1008V38.1808C29.5135 38.661 29.1229 39.0516 28.6427 39.0516H4.78928C4.30918 39.0516 3.91858 38.661 3.91858 38.1808V14.3184C3.91858 13.8383 4.30918 13.4476 4.78928 13.4476H13.8625V28.2327C13.8625 28.7129 14.2531 29.1036 14.7332 29.1036H29.5161L29.5135 29.1008Z" fill="#4C00FF"/>
<path d="M39.4631 16.2986C39.4631 23.9407 35.012 29.087 29.5138 29.1033V19.4835C29.5138 19.2067 29.4026 18.9409 29.2073 18.7456L24.2191 13.7566C24.0237 13.5612 23.7579 13.4501 23.4813 13.4501H13.8628V4.37278C13.8628 3.8926 14.2534 3.50195 14.7336 3.50195H28.1928C34.5671 3.50195 39.4631 8.64283 39.4631 16.2986Z" fill="#FF5252"/>
<path d="M29.207 18.7459C29.4023 18.9412 29.5135 19.2071 29.5135 19.4838V29.1036H14.7305C14.2504 29.1036 13.8598 28.7129 13.8598 28.2328V13.4476H23.4783C23.7549 13.4476 24.0207 13.5589 24.2161 13.7542L29.207 18.7459Z" fill="black"/>
<path d="M379.924 5.20557H234.104C232.36 5.20557 230.946 6.61945 230.946 8.36355V42.9579C230.946 44.702 232.36 46.1158 234.104 46.1158H379.924C381.668 46.1158 383.081 44.702 383.081 42.9579V8.36355C383.081 6.61945 381.668 5.20557 379.924 5.20557Z" fill="#E9E7FD"/>
<path d="M247.635 34.4818C243.912 34.4818 241.236 31.3985 241.236 27.0644C241.236 22.7302 243.912 19.6469 247.635 19.6469C249.758 19.6469 251.561 20.6941 252.695 22.3812V12.8112H254.905V34.1909H252.87L252.753 31.6603C251.619 33.4056 249.816 34.4818 247.635 34.4818ZM248.071 32.4166C250.776 32.4166 252.695 30.2059 252.695 27.0644C252.695 23.9229 250.776 21.7121 248.071 21.7121C245.366 21.7121 243.446 23.9229 243.446 27.0644C243.446 30.2059 245.366 32.4166 248.071 32.4166ZM264.247 34.4818C260.291 34.4818 257.412 31.3694 257.412 27.0644C257.412 22.7302 260.175 19.6469 264.101 19.6469C267.998 19.6469 270.791 22.7012 270.791 26.9771C270.791 27.3553 270.761 27.6752 270.732 27.9661H259.651C260.029 30.6422 261.861 32.4166 264.247 32.4166C266.079 32.4166 267.416 31.6603 268.638 29.8859L270.383 31.0204C269.074 33.2893 266.951 34.4818 264.247 34.4818ZM268.522 26.0754C268.289 23.4574 266.515 21.7121 264.101 21.7121C261.774 21.7121 260.029 23.4574 259.68 26.0754H268.522ZM276.532 34.1909L271.181 19.9378H273.479L277.813 31.8639L282.146 19.9378H284.443L279.092 34.1909H276.532ZM291.854 34.4818C287.899 34.4818 285.02 31.3694 285.02 27.0644C285.02 22.7302 287.782 19.6469 291.709 19.6469C295.607 19.6469 298.398 22.7012 298.398 26.9771C298.398 27.3553 298.37 27.6752 298.34 27.9661H287.259C287.637 30.6422 289.47 32.4166 291.854 32.4166C293.687 32.4166 295.025 31.6603 296.246 29.8859L297.991 31.0204C296.682 33.2893 294.559 34.4818 291.854 34.4818ZM296.13 26.0754C295.897 23.4574 294.123 21.7121 291.709 21.7121C289.382 21.7121 287.637 23.4574 287.288 26.0754H296.13ZM300.921 34.1909V12.8112H303.132V34.1909H300.921ZM312.476 34.4818C308.491 34.4818 305.641 31.3985 305.641 27.0644C305.641 22.7302 308.491 19.6469 312.476 19.6469C316.46 19.6469 319.31 22.7302 319.31 27.0644C319.31 31.3985 316.46 34.4818 312.476 34.4818ZM312.476 32.4166C315.18 32.4166 317.1 30.2059 317.1 27.0644C317.1 23.9229 315.18 21.7121 312.476 21.7121C309.771 21.7121 307.851 23.9229 307.851 27.0644C307.851 30.2059 309.771 32.4166 312.476 32.4166ZM329.098 34.4818C326.975 34.4818 325.171 33.4347 324.037 31.7476V40.1249H321.827V19.9378H323.863L323.979 22.4685C325.113 20.7232 326.916 19.6469 329.098 19.6469C332.82 19.6469 335.496 22.7302 335.496 27.0644C335.496 31.3985 332.82 34.4818 329.098 34.4818ZM328.662 32.4166C331.366 32.4166 333.286 30.2059 333.286 27.0644C333.286 23.9229 331.366 21.7121 328.662 21.7121C325.957 21.7121 324.037 23.9229 324.037 27.0644C324.037 30.2059 325.957 32.4166 328.662 32.4166ZM344.543 34.4818C340.587 34.4818 337.708 31.3694 337.708 27.0644C337.708 22.7302 340.471 19.6469 344.398 19.6469C348.294 19.6469 351.087 22.7012 351.087 26.9771C351.087 27.3553 351.058 27.6752 351.028 27.9661H339.948C340.326 30.6422 342.158 32.4166 344.543 32.4166C346.375 32.4166 347.713 31.6603 348.934 29.8859L350.68 31.0204C349.371 33.2893 347.247 34.4818 344.543 34.4818ZM348.818 26.0754C348.586 23.4574 346.812 21.7121 344.398 21.7121C342.07 21.7121 340.326 23.4574 339.976 26.0754H348.818ZM353.61 34.1909V19.9378H355.617L355.675 22.8175H355.704C356.576 20.7523 358.205 19.5888 360.328 19.5888C360.59 19.5888 360.823 19.6178 361.084 19.676L360.939 21.7413C360.619 21.6831 360.357 21.654 360.008 21.654C357.973 21.654 356.49 23.2538 355.966 26.0754C355.849 26.6281 355.82 27.4135 355.82 28.8097V34.1909H353.61ZM367.803 34.4818C365.331 34.4818 363.033 33.6383 361.608 32.1257L362.772 30.5259C364.022 31.8057 365.942 32.5038 367.745 32.5038C369.636 32.5038 371.002 31.6021 371.002 30.264C371.002 28.606 368.85 28.1988 367.396 27.937C365.128 27.5298 362.248 26.7153 362.248 23.7483C362.248 21.2758 364.284 19.6469 367.105 19.6469C369.286 19.6469 371.002 20.2287 372.777 21.5667L371.613 23.1957C370.188 22.1776 368.647 21.6249 367.105 21.6249C365.476 21.6249 364.371 22.4103 364.371 23.6029C364.371 25.29 366.611 25.6972 367.687 25.8718C370.217 26.3081 373.125 27.1807 373.125 30.1768C373.125 32.7947 370.915 34.4818 367.803 34.4818Z" fill="black"/>
</svg>
